<svg xmlns="http://www.w3.org/2000/svg" width="1280" height="640" fill="none" viewBox="0 0 1280 640"><path fill="#f8fafc" d="M0 0h1280v640H0z"/><circle cx="1120" cy="120" r="110" fill="#ccfbf1"/><circle cx="958" cy="572" r="160" fill="#cffafe"/><circle cx="1178" cy="198" r="48" fill="#99f6e4" fill-opacity=".7"/><rect width="450" height="456" x="88" y="92" fill="#e5f3f1" rx="56"/><rect width="364" height="364" x="132" y="128" fill="#0f766e" rx="44"/><rect width="268" height="268" x="180" y="180" fill="#134e4a" fill-opacity=".2" stroke="#99f6e4" stroke-opacity=".3" stroke-width="2" rx="38"/><rect width="168" height="168" x="230" y="218" fill="#f8fafc" rx="24"/><path stroke="#0f766e" stroke-linecap="round" stroke-width="18" d="M258 338q22.5-39 51-39t51 39"/><circle cx="286" cy="270" r="14" fill="#0f766e"/><path stroke="#99f6e4" stroke-linecap="round" stroke-width="24" d="M198 430h232"/><path stroke="#ccfbf1" stroke-linecap="round" stroke-width="16" d="M226 474h176"/><rect width="110" height="40" x="600" y="100" fill="#d9f1ee" rx="20"/><text x="655" y="126" fill="#0f766e" font-family="Arial, Helvetica, sans-serif" font-size="18" font-weight="700" letter-spacing="5" text-anchor="middle">
    CLI
  </text><text x="600" y="238" fill="#0f172a" font-family="Arial, Helvetica, sans-serif" font-size="92" font-weight="700">
    Squeezit
  </text><text x="600" y="298" fill="#0f766e" font-family="Arial, Helvetica, sans-serif" font-size="26" font-weight="700">
    Lossless image compression for repositories
  </text><text x="600" y="360" fill="#475569" font-family="Arial, Helvetica, sans-serif" font-size="27">
    Clean files. Smaller assets. Predictable automation.
  </text><rect width="368" height="64" x="600" y="408" fill="#0f172a" rx="18"/><text x="632" y="449" fill="#ccfbf1" font-family="Courier New, monospace" font-size="24" font-weight="700">
    npm i -g squeezit
  </text><rect width="548" height="72" x="600" y="492" fill="#fff" stroke="#cbd5e1" stroke-width="3" rx="18"/><text x="632" y="536" fill="#0f172a" font-family="Courier New, monospace" font-size="22" font-weight="700">
    squeezit -r assets -d
  </text><text x="1114" y="596" fill="#64748b" font-family="Arial, Helvetica, sans-serif" font-size="18" text-anchor="end">
    squeezit.dev • open-source CLI
  </text></svg>