<svg width="360" height="360" viewBox="0 0 360 360" fill="none" xmlns="http://www.w3.org/2000/svg" role="img" aria-labelledby="title desc">
  <title id="title">squeezit logo</title>
  <desc id="desc">Icon logo for the squeezit image compression CLI.</desc>
  <defs>
    <linearGradient id="panel" x1="62" y1="52" x2="298" y2="308" gradientUnits="userSpaceOnUse">
      <stop stop-color="#0F766E"/>
      <stop offset="1" stop-color="#155E75"/>
    </linearGradient>
    <linearGradient id="accent" x1="116" y1="112" x2="248" y2="248" gradientUnits="userSpaceOnUse">
      <stop stop-color="#F8FAFC"/>
      <stop offset="1" stop-color="#CCFBF1"/>
    </linearGradient>
  </defs>

  <rect x="62" y="52" width="236" height="256" rx="36" fill="url(#panel)"/>
  <rect x="94" y="94" width="172" height="172" rx="28" fill="#0B1320" fill-opacity="0.16" stroke="#99F6E4" stroke-opacity="0.22"/>
  <path d="M127 128C127 119.716 133.716 113 142 113H218C226.284 113 233 119.716 233 128V204C233 212.284 226.284 219 218 219H142C133.716 219 127 212.284 127 204V128Z" fill="url(#accent)"/>
  <path d="M152 193C160.333 178.333 169.333 171 179 171C188.667 171 197.667 178.333 206 193" stroke="#0F766E" stroke-width="14" stroke-linecap="round"/>
  <circle cx="165" cy="147" r="11" fill="#0F766E"/>
  <path d="M114 244H246" stroke="#99F6E4" stroke-width="16" stroke-linecap="round"/>
  <path d="M131 271H229" stroke="#CCFBF1" stroke-width="12" stroke-linecap="round" opacity="0.85"/>
</svg>
